# xmcd
# 
# Track frame offsets:
#     182
#     13385
#     27515
#     56180
#     75172
#     92470
#     118612
#     138957
#     150782
#     163465
#     179510
#     194022
#     214907
#     236067
#     258225
#     270562
#     285555
#     301530
# 
# Disc length: 4379
# 
# Revision: 18
# Processed by: cddbd v1.5.2PL0 Copyright (c) Steve Scherf et al.
# Submitted via: BonkEnc v1.0.15
# 
DISCID=f5111912
DTITLE=Michel Polnareff - La compilation [CD1)
DYEAR=1991
DGENRE=Chanson
TTITLE0=Tout tout pour ma chérie
TTITLE1=L'amour avec toi
TTITLE2=Goodbye Marylou
TTITLE3=Elle rit
TTITLE4=Sous quelle étoile suis-je né ?
TTITLE5=Tam tam (L'homme préhisto)
TTITLE6=On ira tous au paradis
TTITLE7=Qui a tué grand-maman ?
TTITLE8=Le roi des fourmis
TTITLE9=La belle veut sa revanche (Encore et encore)
TTITLE10=La poupée qui fait non
TTITLE11=Viens te faire chahuter
TTITLE12=La mouche
TTITLE13=Je suis un homme
TTITLE14=Dans la maison vide
TTITLE15=Holidays
TTITLE16=Lipstick
TTITLE17=Bulle de savon
EXTD=Musici di San Marco\nAlberto Lizzio YEAR: 1991
EXTT0=Irwin Arias
EXTT1=Seal
EXTT2=Dimples D
EXTT3=P.J.B. feat. Hannah And Her Sisters
EXTT4=Double W
EXTT5=2 Brothers On The 4th Floor
EXTT6=Enigma
EXTT7=Dr. Alban feat. Leila K
EXTT8=Black Box
EXTT9=Mathieu/Clerc/Souchon
EXTT10=/Native/Dupond/Smain
EXTT11=Hallyday/Cantona/Goldman
EXTT12=Juvet/Palmade/Lavoine/Obispo/Balasko/Timsit/Noah/Voulzy
EXTT13=Goldman/Sardou
EXTT14=Avec Ding and Dong
EXTT15=Fabian/Hallyday
EXTT16=Renaud/Bruel/Lara/Goldman
EXTT17=\n
PLAYORDER=
